# xmcd CD database file
#
# Track frame offsets:
#	150
#	19110
#	26540
#	40128
#	52633
#	68795
#	91110
#	132900
#	146928
#	169093
#	183213
#	202100
#	229140
#	251998
#	269243
#	291698
#
# Disc length: 4190 seconds
#
# Revision: 1
# Processed by: cddbd v1.5.1PL0 Copyright (c) Steve Scherf et al.
# Submitted via: CDex 1.51
#
DISCID=f3105c10
DTITLE=ルースターズ - INSANE+IN NURNBERG and C.M.C
DYEAR=1987
DGENRE=Rock
TTITLE0=レッツ・ロック(Dan Dan)
TTITLE1=ゲット・エヴリシング
TTITLE2=ベビー・シッター
TTITLE3=オール・ナイト・ロング
TTITLE4=フラッシュ・バック
TTITLE5=ケース・オブ・インサニティ
TTITLE6=イン・ディープ・グリーフ
TTITLE7=ヘイ・ガール
TTITLE8=ニュールンベルグでささやいて
TTITLE9=撃沈魚雷
TTITLE10=バリウム・ピルズ
TTITLE11=ロージー
TTITLE12=C.M.C
TTITLE13=カレドニア
TTITLE14=ドライヴ・オール・ナイト
TTITLE15=ケース・オブ・インサニティ（ライブ）
EXTD=YEAR: 1987
EXTT0=
EXTT1=
EXTT2=
EXTT3=
EXTT4=
EXTT5=
EXTT6=
EXTT7=
EXTT8=
EXTT9=
EXTT10=
EXTT11=
EXTT12=
EXTT13=
EXTT14=
EXTT15=
PLAYORDER=
